<svg width="265" height="55" viewBox="0 0 265 55" fill="none" xmlns="http://www.w3.org/2000/svg">
<g clip-path="url(#clip0_4:56)">
<path d="M56.1793 16.138C56.1793 6.47551 62.1405 0.726929 69.4865 0.726929C73.1596 0.726929 76.0498 2.50043 77.9164 4.45739L75.1466 7.82093C73.6413 6.29205 71.8951 5.25241 69.6069 5.25241C64.8501 5.25241 61.4781 9.3498 61.4781 15.9546C61.4781 22.6816 64.6092 26.779 69.4865 26.779C72.0757 26.779 74.0628 25.5559 75.7487 23.7213L78.5186 27.0236C76.1702 29.7756 73.0993 31.3045 69.3661 31.3045C61.9598 31.4268 56.1793 25.984 56.1793 16.138Z" fill="#2E1D67"/>
<path d="M95.7999 19.8073C95.7999 15.343 93.8128 12.4076 90.6215 12.4076C87.4302 12.4076 85.5034 15.343 85.5034 19.8073C85.5034 24.2717 87.4302 27.2071 90.6215 27.2071C93.873 27.146 95.7999 24.2105 95.7999 19.8073ZM80.2648 19.8073C80.2648 12.4076 85.2023 8.12671 90.6215 8.12671C96.1009 8.12671 101.038 12.4076 101.038 19.8073C101.038 27.2071 96.1009 31.4268 90.6215 31.4268C85.2023 31.4268 80.2648 27.146 80.2648 19.8073Z" fill="#2E1D67"/>
<path d="M105.193 8.67711H109.408L109.769 11.7349H109.95C111.756 9.71675 113.924 8.18787 116.634 8.18787C119.825 8.18787 121.692 9.65559 122.715 12.163C124.823 9.90021 126.99 8.18787 129.76 8.18787C134.397 8.18787 136.504 11.4291 136.504 16.9942V30.9376H131.326V17.6058C131.326 13.9365 130.242 12.591 128.014 12.591C126.629 12.591 125.124 13.5084 123.438 15.343V30.8764H118.32V17.6058C118.32 13.9365 117.236 12.591 114.948 12.591C113.623 12.591 112.058 13.5084 110.372 15.343V30.8764H105.253V8.67711H105.193Z" fill="#2E1D67"/>
<path d="M140.057 27.0848L143.068 23.5378C145.175 25.5559 147.945 26.9013 150.654 26.9013C153.966 26.9013 155.712 25.4336 155.712 23.1097C155.712 20.6635 153.846 19.8685 151.196 18.7677L147.162 16.9942C144.332 15.7711 141.261 13.4472 141.261 9.10518C141.321 4.33508 145.416 0.726929 151.136 0.726929C154.508 0.726929 157.82 2.19465 160.108 4.45739L157.459 7.82093C155.592 6.23089 153.605 5.31356 151.136 5.31356C148.366 5.31356 146.56 6.59782 146.56 8.79941C146.56 11.1233 148.788 11.9795 151.196 12.958L155.17 14.6091C158.603 16.0769 161.071 18.3396 161.071 22.6205C161.071 27.3906 157.157 31.4268 150.594 31.4268C146.62 31.4268 142.827 29.8368 140.057 27.0848Z" fill="#2E1D67"/>
<path d="M179.436 19.8073C179.436 15.343 177.449 12.4076 174.258 12.4076C171.067 12.4076 169.14 15.343 169.14 19.8073C169.14 24.2717 171.067 27.2071 174.258 27.2071C177.449 27.146 179.436 24.2105 179.436 19.8073ZM163.901 19.8073C163.901 12.4076 168.839 8.12671 174.258 8.12671C179.738 8.12671 184.675 12.4076 184.675 19.8073C184.675 27.2071 179.738 31.4268 174.258 31.4268C168.839 31.4268 163.901 27.146 163.901 19.8073Z" fill="#2E1D67"/>
<path d="M188.649 22.5593V8.61597H193.767V21.8866C193.767 25.5559 194.791 26.9014 197.139 26.9014C199.066 26.9014 200.331 25.984 202.017 23.8436V8.61597H207.135V30.8153H202.92L202.498 27.5741H202.378C200.451 29.898 198.344 31.3657 195.333 31.3657C190.696 31.4268 188.649 28.1856 188.649 22.5593Z" fill="#2E1D67"/>
<path d="M212.554 8.67711H216.769L217.13 12.591H217.311C218.876 9.71674 221.165 8.12671 223.513 8.12671C224.657 8.12671 225.319 8.24902 225.982 8.55479L225.078 13.0803C224.296 12.8357 223.754 12.7133 222.79 12.7133C221.044 12.7133 218.937 13.9364 217.612 17.3V30.8764H212.554V8.67711Z" fill="#2E1D67"/>
<path d="M226.764 19.8073C226.764 12.4076 231.883 8.12671 237.723 8.12671C240.553 8.12671 242.54 9.2275 244.166 10.6341L241.697 14.0588C240.553 13.0191 239.409 12.4076 238.024 12.4076C234.532 12.4076 232.063 15.343 232.063 19.8073C232.063 24.2717 234.472 27.2071 237.904 27.2071C239.59 27.2071 241.155 26.3509 242.42 25.3113L244.527 28.736C242.48 30.5706 239.891 31.4268 237.422 31.4268C231.341 31.4268 226.764 27.146 226.764 19.8073Z" fill="#2E1D67"/>
<path d="M260.544 17.6669C260.544 14.2422 259.099 12.1629 256.088 12.1629C253.499 12.1629 251.271 14.1199 250.85 17.6669H260.544ZM245.852 19.8073C245.852 12.591 250.79 8.12671 255.908 8.12671C261.809 8.12671 264.94 12.4687 264.94 18.6454C264.94 19.6239 264.88 20.6635 264.699 21.1528H250.79C251.211 25.0667 253.74 27.3294 257.232 27.3294C259.099 27.3294 260.725 26.7179 262.29 25.6782L264.037 28.9195C261.929 30.326 259.34 31.3045 256.57 31.3045C250.609 31.4268 245.852 27.0848 245.852 19.8073Z" fill="#2E1D67"/>
<path d="M59.4308 46.4098C61.1168 46.4098 61.9598 45.7983 61.9598 44.3917C61.9598 42.9851 61.1168 42.4959 59.3706 42.4959H57.9857V46.4098H59.4308ZM56.7212 41.4562H59.4911C61.6587 41.4562 63.1641 42.1901 63.1641 44.3917C63.1641 46.471 61.719 47.4494 59.5513 47.4494H57.9255V51.3634H56.661V41.4562H56.7212Z" fill="#2E1D67"/>
<path d="M69.6069 47.1437C69.6069 45.676 68.9445 44.8809 67.8005 44.8809C66.7769 44.8809 65.8736 45.7371 65.7532 47.1437H69.6069ZM64.549 47.6941C64.549 45.309 66.1145 43.8413 67.8005 43.8413C69.6671 43.8413 70.6907 45.1867 70.6907 47.266C70.6907 47.5106 70.6907 47.8164 70.6305 47.9999H65.7532C65.8134 49.5287 66.7769 50.5684 68.1618 50.5684C68.8241 50.5684 69.4263 50.3238 69.9682 49.9568L70.3897 50.7518C69.7273 51.1799 69.0048 51.4857 67.9811 51.4857C66.0543 51.5469 64.549 50.1403 64.549 47.6941Z" fill="#2E1D67"/>
<path d="M77.8562 47.6941C77.8562 46.0429 77.0132 44.8809 75.7487 44.8809C74.4842 44.8809 73.6413 46.0429 73.6413 47.6941C73.6413 49.3453 74.4842 50.5072 75.7487 50.5072C77.0132 50.5072 77.8562 49.4064 77.8562 47.6941ZM72.3768 47.6941C72.3768 45.2479 73.9423 43.8413 75.7487 43.8413C77.4949 43.8413 79.1207 45.2479 79.1207 47.6941C79.1207 50.1403 77.5551 51.5469 75.7487 51.5469C73.9423 51.5469 72.3768 50.1403 72.3768 47.6941Z" fill="#2E1D67"/>
<path d="M86.2259 47.6329C86.2259 46.0429 85.684 44.9421 84.2991 44.9421C83.6969 44.9421 83.0948 45.309 82.3722 45.9206V49.7734C83.0346 50.3238 83.6367 50.5072 84.1184 50.5072C85.3829 50.5072 86.2259 49.4064 86.2259 47.6329ZM81.168 44.0248H82.1916L82.312 44.8809H82.3722C83.0346 44.3305 83.8174 43.8413 84.6604 43.8413C86.527 43.8413 87.5506 45.309 87.5506 47.5718C87.5506 50.0791 86.0453 51.5469 84.4195 51.5469C83.7571 51.5469 83.0948 51.2411 82.4324 50.6907L82.4927 51.9749V54.4823H81.2884V44.0248H81.168Z" fill="#2E1D67"/>
<path d="M89.658 49.8957V40.6001H90.8623V49.9568C90.8623 50.3238 91.0429 50.5072 91.2236 50.5072C91.2838 50.5072 91.344 50.5072 91.4644 50.5072L91.6451 51.4857C91.4644 51.5469 91.2838 51.608 90.9225 51.608C90.0193 51.5469 89.658 50.9353 89.658 49.8957Z" fill="#2E1D67"/>
<path d="M98.0277 47.1437C98.0277 45.676 97.3654 44.8809 96.2213 44.8809C95.1977 44.8809 94.2945 45.7371 94.1741 47.1437H98.0277ZM92.9698 47.6941C92.9698 45.309 94.5353 43.8413 96.2213 43.8413C98.088 43.8413 99.1116 45.1867 99.1116 47.266C99.1116 47.5106 99.1116 47.8164 99.0514 47.9999H94.1741C94.2343 49.5287 95.1977 50.5684 96.5826 50.5684C97.245 50.5684 97.8471 50.3238 98.389 49.9568L98.8105 50.7518C98.1482 51.1799 97.4256 51.4857 96.402 51.4857C94.5354 51.5469 92.9698 50.1403 92.9698 47.6941Z" fill="#2E1D67"/>
<path d="M104.17 47.3883C104.17 46.2875 104.952 45.5536 105.856 45.5536C106.759 45.5536 107.542 46.2875 107.542 47.3883C107.542 48.4891 106.759 49.223 105.856 49.223C104.952 49.223 104.17 48.4891 104.17 47.3883Z" fill="#2E1D67"/>
<path d="M115.309 42.557H112.359V41.4562H119.464V42.557H116.513V51.3634H115.309V42.557Z" fill="#2E1D67"/>
<path d="M124.642 47.1437C124.642 45.676 123.98 44.8809 122.836 44.8809C121.812 44.8809 120.909 45.7371 120.789 47.1437H124.642ZM119.584 47.6941C119.584 45.309 121.15 43.8413 122.836 43.8413C124.702 43.8413 125.726 45.1867 125.726 47.266C125.726 47.5106 125.726 47.8164 125.666 47.9999H120.789C120.849 49.5287 121.812 50.5684 123.197 50.5684C123.859 50.5684 124.462 50.3238 125.003 49.9568L125.425 50.7518C124.763 51.1799 124.04 51.4857 123.016 51.4857C121.15 51.5469 119.584 50.1403 119.584 47.6941Z" fill="#2E1D67"/>
<path d="M127.472 47.6941C127.472 45.2479 129.098 43.8413 130.965 43.8413C131.928 43.8413 132.59 44.2082 133.072 44.6975L132.47 45.4925C132.048 45.1256 131.627 44.8198 131.025 44.8198C129.7 44.8198 128.737 45.9817 128.737 47.6329C128.737 49.2841 129.64 50.4461 130.965 50.4461C131.627 50.4461 132.229 50.1403 132.651 49.7122L133.192 50.5684C132.53 51.1799 131.747 51.4857 130.844 51.4857C128.917 51.5469 127.472 50.1403 127.472 47.6941Z" fill="#2E1D67"/>
<path d="M134.999 40.6001H136.203V43.5355L136.143 45.0644C136.805 44.3917 137.528 43.8413 138.551 43.8413C140.057 43.8413 140.779 44.8198 140.779 46.7156V51.3634H139.575V46.8991C139.575 45.5537 139.154 44.9421 138.19 44.9421C137.468 44.9421 136.926 45.309 136.203 46.0429V51.3634H134.999V40.6001Z" fill="#2E1D67"/>
<path d="M143.248 44.0248H144.272L144.392 45.0644H144.452C145.115 44.3917 145.898 43.8413 146.861 43.8413C148.366 43.8413 149.089 44.8198 149.089 46.7156V51.3634H147.885V46.8991C147.885 45.5537 147.463 44.9421 146.5 44.9421C145.777 44.9421 145.235 45.309 144.513 46.0429V51.3634H143.308V44.0248H143.248Z" fill="#2E1D67"/>
<path d="M156.495 47.6941C156.495 46.0429 155.652 44.8809 154.388 44.8809C153.123 44.8809 152.28 46.0429 152.28 47.6941C152.28 49.3453 153.123 50.5072 154.388 50.5072C155.652 50.5072 156.495 49.4064 156.495 47.6941ZM151.076 47.6941C151.076 45.2479 152.641 43.8413 154.448 43.8413C156.194 43.8413 157.82 45.2479 157.82 47.6941C157.82 50.1403 156.254 51.5469 154.448 51.5469C152.641 51.5469 151.076 50.1403 151.076 47.6941Z" fill="#2E1D67"/>
<path d="M159.867 49.8957V40.6001H161.071V49.9568C161.071 50.3238 161.252 50.5072 161.433 50.5072C161.493 50.5072 161.553 50.5072 161.673 50.5072L161.854 51.4857C161.673 51.5469 161.493 51.608 161.132 51.608C160.289 51.5469 159.867 50.9353 159.867 49.8957Z" fill="#2E1D67"/>
<path d="M168.658 47.6941C168.658 46.0429 167.815 44.8809 166.551 44.8809C165.286 44.8809 164.443 46.0429 164.443 47.6941C164.443 49.3453 165.286 50.5072 166.551 50.5072C167.815 50.5072 168.658 49.4064 168.658 47.6941ZM163.239 47.6941C163.239 45.2479 164.805 43.8413 166.611 43.8413C168.357 43.8413 169.983 45.2479 169.983 47.6941C169.983 50.1403 168.417 51.5469 166.611 51.5469C164.805 51.5469 163.239 50.1403 163.239 47.6941Z" fill="#2E1D67"/>
<path d="M175.944 46.471C175.944 45.4313 175.282 44.7586 174.439 44.7586C173.596 44.7586 172.873 45.3702 172.873 46.471C172.873 47.5106 173.596 48.2445 174.439 48.2445C175.282 48.2445 175.944 47.5106 175.944 46.471ZM176.908 52.403C176.908 51.7303 176.426 51.4857 175.462 51.4857H174.198C173.897 51.4857 173.596 51.4857 173.235 51.3634C172.693 51.7303 172.512 52.1584 172.512 52.5865C172.512 53.3815 173.295 53.8708 174.619 53.8708C176.004 53.8708 176.908 53.1369 176.908 52.403ZM171.428 52.77C171.428 52.1584 171.85 51.5469 172.512 51.1188V51.0576C172.151 50.813 171.85 50.4461 171.85 49.8345C171.85 49.223 172.271 48.7337 172.632 48.4891V48.4279C172.151 48.061 171.669 47.3272 171.669 46.471C171.669 44.8809 172.933 43.8413 174.379 43.8413C174.8 43.8413 175.161 43.9025 175.402 44.0248H177.931V45.0033H176.426C176.787 45.309 177.028 45.8594 177.028 46.5321C177.028 48.1222 175.884 49.1007 174.379 49.1007C174.017 49.1007 173.656 49.0395 173.295 48.856C173.054 49.1007 172.813 49.3453 172.813 49.7122C172.813 50.2014 173.114 50.5072 174.077 50.5072H175.462C177.148 50.5072 177.991 51.0576 177.991 52.2807C177.991 53.6261 176.546 54.7881 174.318 54.7881C172.632 54.7269 171.428 54.0542 171.428 52.77Z" fill="#2E1D67"/>
<path d="M179.738 54.36L179.978 53.3815C180.099 53.4427 180.34 53.5038 180.52 53.5038C181.363 53.5038 181.845 52.8311 182.146 51.9138L182.327 51.3634L179.437 44.0248H180.701L182.146 48.061C182.387 48.6726 182.628 49.4676 182.869 50.1403H182.929C183.11 49.4676 183.35 48.7337 183.531 48.061L184.796 44.0248H186L183.29 51.9749C182.808 53.4427 182.026 54.5435 180.581 54.5435C180.219 54.5435 179.918 54.4823 179.738 54.36Z" fill="#2E1D67"/>
<path d="M190.636 47.3883C190.636 46.2875 191.419 45.5536 192.322 45.5536C193.225 45.5536 194.008 46.2875 194.008 47.3883C194.008 48.4891 193.225 49.223 192.322 49.223C191.419 49.223 190.636 48.4891 190.636 47.3883Z" fill="#2E1D67"/>
<path d="M202.438 46.4098C204.124 46.4098 204.967 45.7983 204.967 44.3917C204.967 42.9851 204.124 42.4959 202.378 42.4959H200.993V46.4098H202.438ZM199.728 41.4562H202.498C204.666 41.4562 206.171 42.1901 206.171 44.3917C206.171 46.471 204.726 47.4494 202.559 47.4494H200.933V51.3634H199.668V41.4562H199.728Z" fill="#2E1D67"/>
<path d="M212.976 47.6941C212.976 46.0429 212.133 44.8809 210.868 44.8809C209.604 44.8809 208.761 46.0429 208.761 47.6941C208.761 49.3453 209.604 50.5072 210.868 50.5072C212.133 50.5072 212.976 49.4064 212.976 47.6941ZM207.556 47.6941C207.556 45.2479 209.122 43.8413 210.928 43.8413C212.674 43.8413 214.3 45.2479 214.3 47.6941C214.3 50.1403 212.735 51.5469 210.928 51.5469C209.122 51.5469 207.556 50.1403 207.556 47.6941Z" fill="#2E1D67"/>
<path d="M215.565 50.5684L216.167 49.7734C216.769 50.2626 217.431 50.6295 218.274 50.6295C219.238 50.6295 219.719 50.1403 219.719 49.4676C219.719 48.7337 218.876 48.3668 218.094 48.061C217.07 47.6941 215.926 47.2048 215.926 45.9206C215.926 44.7586 216.829 43.8413 218.395 43.8413C219.298 43.8413 220.081 44.2082 220.623 44.6363L220.02 45.4313C219.539 45.0644 218.997 44.7586 218.395 44.7586C217.491 44.7586 217.07 45.2479 217.07 45.7983C217.07 46.471 217.853 46.7768 218.696 47.0825C219.719 47.5106 220.924 47.9387 220.924 49.2841C220.924 50.4461 220.02 51.4857 218.274 51.4857C217.251 51.5469 216.287 51.1188 215.565 50.5684Z" fill="#2E1D67"/>
<path d="M222.369 50.5684L222.971 49.7734C223.573 50.2626 224.235 50.6295 225.078 50.6295C226.042 50.6295 226.524 50.1403 226.524 49.4676C226.524 48.7337 225.681 48.3668 224.898 48.061C223.874 47.6941 222.73 47.2048 222.73 45.9206C222.73 44.7586 223.633 43.8413 225.199 43.8413C226.102 43.8413 226.885 44.2082 227.427 44.6363L226.825 45.4313C226.343 45.0644 225.801 44.7586 225.199 44.7586C224.296 44.7586 223.874 45.2479 223.874 45.7983C223.874 46.471 224.657 46.7768 225.5 47.0825C226.524 47.5106 227.728 47.9387 227.728 49.2841C227.728 50.4461 226.825 51.4857 225.078 51.4857C224.055 51.5469 223.091 51.1188 222.369 50.5684Z" fill="#2E1D67"/>
<path d="M229.594 44.0248H230.799V51.3634H229.594V44.0248ZM229.354 41.7009C229.354 41.2117 229.715 40.9059 230.197 40.9059C230.678 40.9059 231.04 41.2117 231.04 41.7009C231.04 42.1901 230.678 42.4959 230.197 42.4959C229.715 42.4959 229.354 42.1901 229.354 41.7009Z" fill="#2E1D67"/>
<path d="M238.325 47.6329C238.325 46.0429 237.783 44.9421 236.399 44.9421C235.796 44.9421 235.134 45.309 234.472 45.9206V49.7734C235.134 50.3238 235.736 50.5072 236.218 50.5072C237.482 50.5072 238.325 49.4064 238.325 47.6329ZM234.412 50.6295L234.231 51.3634H233.267V40.6001H234.472V43.5355L234.412 44.881C235.074 44.3306 235.857 43.8413 236.7 43.8413C238.566 43.8413 239.59 45.309 239.59 47.5718C239.59 50.0791 238.085 51.5469 236.459 51.5469C235.796 51.5469 235.074 51.1799 234.412 50.6295Z" fill="#2E1D67"/>
<path d="M241.697 44.0248H242.902V51.3634H241.697V44.0248ZM241.456 41.7009C241.456 41.2117 241.818 40.9059 242.299 40.9059C242.781 40.9059 243.142 41.2117 243.142 41.7009C243.142 42.1901 242.781 42.4959 242.299 42.4959C241.818 42.5571 241.456 42.1901 241.456 41.7009Z" fill="#2E1D67"/>
<path d="M245.37 49.8957V40.6001H246.575V49.9568C246.575 50.3238 246.755 50.5072 246.936 50.5072C246.996 50.5072 247.056 50.5072 247.177 50.5072L247.357 51.4857C247.177 51.5469 246.996 51.608 246.635 51.608C245.792 51.5469 245.37 50.9353 245.37 49.8957Z" fill="#2E1D67"/>
<path d="M249.224 44.0248H250.428V51.3634H249.224V44.0248ZM248.983 41.7009C248.983 41.2117 249.344 40.9059 249.826 40.9059C250.308 40.9059 250.669 41.2117 250.669 41.7009C250.669 42.1901 250.308 42.4959 249.826 42.4959C249.344 42.5571 248.983 42.1901 248.983 41.7009Z" fill="#2E1D67"/>
<path d="M253.258 49.1006V45.0644H252.174V44.1471L253.319 44.0859L253.439 42.0067H254.463V44.0859H256.389V45.1256H254.463V49.223C254.463 50.1403 254.764 50.6295 255.607 50.6295C255.848 50.6295 256.209 50.5072 256.45 50.4461L256.69 51.3634C256.269 51.4857 255.787 51.608 255.366 51.608C253.8 51.5469 253.258 50.5684 253.258 49.1006Z" fill="#2E1D67"/>
<path d="M258.256 54.36L258.497 53.3815C258.617 53.4427 258.858 53.5038 259.039 53.5038C259.882 53.5038 260.364 52.8311 260.665 51.9138L260.845 51.3634L257.955 44.0248H259.22L260.665 48.061C260.905 48.6726 261.146 49.4676 261.387 50.1403H261.447C261.628 49.4676 261.869 48.7337 262.05 48.061L263.314 44.0248H264.518L261.809 51.9749C261.327 53.4427 260.544 54.5435 259.099 54.5435C258.738 54.5435 258.497 54.4823 258.256 54.36Z" fill="#2E1D67"/>
<path d="M12.1632 38.5208C9.21269 36.992 8.12885 33.445 9.63419 30.4483C11.1395 27.4517 14.8728 26.2898 17.7028 27.8798C20.5328 29.4087 21.6167 33.1392 20.1114 36.0135C18.606 38.9489 15.0534 40.0497 12.1632 38.5208Z" fill="#2E1D67"/>
<path d="M9.39314 28.4302C8.06845 30.9376 5.17819 31.7938 2.70944 30.5095C0.240682 29.2252 -0.722736 26.1675 0.541749 23.7213C1.80623 21.2139 4.99755 20.2354 7.4061 21.5808C9.75443 22.8651 10.6576 25.984 9.39314 28.4302Z" fill="#2E1D67"/>
<path d="M6.44289 12.1018C8.36972 13.1414 9.03207 15.4042 7.94823 17.3611C6.92459 19.2569 4.51605 19.9296 2.70964 18.89C0.96345 17.8504 0.3011 15.4653 1.2043 13.6307C2.16772 11.796 4.57627 11.1233 6.44289 12.1018Z" fill="#2E1D67"/>
<path d="M6.50307 6.72012C7.34606 5.06893 9.21268 4.45738 10.8384 5.31355C12.4642 6.16972 13.0663 8.12669 12.2234 9.77788C11.4406 11.3679 9.3331 11.9795 7.82776 11.1844C6.26221 10.3283 5.66008 8.37131 6.50307 6.72012Z" fill="#2E1D67"/>
<path d="M15.2943 6.78126C13.8492 5.98624 13.3072 4.15159 14.09 2.74502C14.8126 1.39961 16.6792 0.849213 18.0039 1.58307C19.3888 2.31694 19.9307 4.21275 19.148 5.61931C18.3652 7.08704 16.7394 7.57628 15.2943 6.78126Z" fill="#2E1D67"/>
<path d="M24.808 1.15502C25.952 1.76657 26.4338 3.35661 25.7714 4.51855C25.1693 5.61935 23.6639 6.04743 22.5801 5.49704C21.436 4.88549 20.9543 3.29545 21.6167 2.1335C22.2188 1.03271 23.7241 0.604624 24.808 1.15502Z" fill="#2E1D67"/>
<path d="M31.2509 4.70204C30.8896 5.55821 29.9262 5.86399 29.1434 5.4359C28.4208 5.00781 28.1197 4.15164 28.481 3.35662C28.9025 2.56161 29.8659 2.19468 30.6487 2.62276C31.3713 2.98969 31.6121 3.90702 31.2509 4.70204Z" fill="#2E1D67"/>
<path d="M36.068 7.08707C35.7669 7.75977 35.0443 8.0044 34.4422 7.63746C33.8401 7.33169 33.6594 6.65898 33.9003 6.04743C34.2013 5.43588 34.9239 5.1301 35.5863 5.49703C36.1282 5.80281 36.3088 6.47552 36.068 7.08707Z" fill="#2E1D67"/>
<path d="M4.63649 45.9817C4.63649 45.9817 4.45585 45.4313 5.05798 45.5536C5.66012 45.7371 12.3438 48.2445 18.4254 47.8164C24.507 47.3883 28.4209 45.676 30.7692 43.0463C33.0573 40.4166 35.4056 36.6861 32.4552 31.6714C31.2509 29.5921 28.0596 27.3906 24.8683 25.189C21.6769 23.0485 21.3759 19.1958 23.0016 16.933C24.6274 14.6703 28.2402 13.0803 32.5756 15.4042C39.1991 19.0123 45.2807 26.4121 41.8485 37.7258C38.2357 49.7122 27.5176 50.8741 26.0725 51.1188C24.6274 51.3634 19.2082 52.2196 10.7181 49.2841C6.98482 47.9998 4.63649 45.9817 4.63649 45.9817Z" fill="#0096D6"/>
</g>
<defs>
<clipPath id="clip0_4:56">
<rect width="265" height="54" fill="white" transform="translate(0 0.726929)"/>
</clipPath>
</defs>
</svg>
